<?xml version="1.0" encoding="UTF-8" standalone="no" ?>
<!DOCTYPE svg PUBLIC "-//W3C//DTD SVG 1.1//EN" "http://www.w3.org/Graphics/SVG/1.1/DTD/svg11.dtd">
<svg xmlns="http://www.w3.org/2000/svg" xmlns:xlink="http://www.w3.org/1999/xlink" version="1.1" width="1080" height="1080" viewBox="0 0 1080 1080" xml:space="preserve">
<desc>Created with Fabric.js 5.2.4</desc>
<defs>
</defs>
<rect x="0" y="0" width="100%" height="100%" fill="transparent"></rect>
<g transform="matrix(1 0 0 1 540 540)" id="163a816d-b090-45ab-8f2e-6ae35cecb94d"  >
<rect style="stroke: none; stroke-width: 1; stroke-dasharray: none; stroke-linecap: butt; stroke-dashoffset: 0; stroke-linejoin: miter; stroke-miterlimit: 4; fill: rgb(255,255,255); fill-rule: nonzero; opacity: 1; visibility: hidden;" vector-effect="non-scaling-stroke"  x="-540" y="-540" rx="0" ry="0" width="1080" height="1080" />
</g>
<g transform="matrix(1 0 0 1 540 540)" id="4d06c454-1659-4b4b-9c77-cf8bda4709ff"  >
</g>
<g transform="matrix(1 0 0 1 540 540)" id="35061ac8-24bb-4ffb-a197-487efb3c0dd7"  >
<path style="stroke: rgb(0,0,0); stroke-width: 0; stroke-dasharray: none; stroke-linecap: butt; stroke-dashoffset: 0; stroke-linejoin: miter; stroke-miterlimit: 4; fill: rgb(245,245,36); fill-rule: nonzero; opacity: 1;" vector-effect="non-scaling-stroke"  transform=" translate(-256.02, -256)" d="M 256 32 C 270.2 32 283.3 39.5 290.5 51.8 L 506.5 419.8 C 513.8 432.2 513.8 447.5 506.7 459.90000000000003 C 499.6 472.30000000000007 486.3 480 472 480 L 40 480 C 25.7 480 12.399999999999999 472.3 5.299999999999997 459.9 C -1.8000000000000043 447.49999999999994 -1.7000000000000028 432.09999999999997 5.499999999999997 419.79999999999995 L 221.5 51.799999999999955 C 228.7 39.5 241.8 32 256 32 z M 256 160 C 242.7 160 232 170.7 232 184 L 232 296 C 232 309.3 242.7 320 256 320 C 269.3 320 280 309.3 280 296 L 280 184 C 280 170.7 269.3 160 256 160 z M 288 384 C 288 366.3 273.7 352 256 352 C 238.3 352 224 366.3 224 384 C 224 401.7 238.3 416 256 416 C 273.7 416 288 401.7 288 384 z" stroke-linecap="round" />
</g>
<g transform="matrix(NaN NaN NaN NaN 0 0)"  >
<g style=""   >
</g>
</g>
<g transform="matrix(NaN NaN NaN NaN 0 0)"  >
<g style=""   >
</g>
</g>
<g transform="matrix(NaN NaN NaN NaN 0 0)"  >
<g style=""   >
</g>
</g>
<g transform="matrix(NaN NaN NaN NaN 0 0)"  >
<g style=""   >
</g>
</g>
</svg>