<?xml version="1.0" encoding="UTF-8" standalone="no" ?>
<!DOCTYPE svg PUBLIC "-//W3C//DTD SVG 1.1//EN" "http://www.w3.org/Graphics/SVG/1.1/DTD/svg11.dtd">
<svg xmlns="http://www.w3.org/2000/svg" xmlns:xlink="http://www.w3.org/1999/xlink" version="1.1" width="1080" height="1080" viewBox="0 0 1080 1080" xml:space="preserve">
<desc>Created with Fabric.js 5.2.4</desc>
<defs>
</defs>
<g transform="matrix(1 0 0 1 540 540)" id="f4db8522-d7e0-47ce-bd6b-98f146c613c9"  >
</g>
<g transform="matrix(1 0 0 1 540 540)" id="536431a6-71a2-4730-bc9b-5d6f171f9e3f"  >
<rect style="stroke: none; stroke-width: 1; stroke-dasharray: none; stroke-linecap: butt; stroke-dashoffset: 0; stroke-linejoin: miter; stroke-miterlimit: 4; fill: rgb(255,255,255); fill-rule: nonzero; opacity: 1; visibility: hidden;" vector-effect="non-scaling-stroke"  x="-540" y="-540" rx="0" ry="0" width="1080" height="1080" />
</g>
<g transform="matrix(33.33 0 0 33.33 539.49 406.15)"  >
<path style="stroke: rgb(70,68,85); stroke-width: 0; stroke-dasharray: none; stroke-linecap: round; stroke-dashoffset: 0; stroke-linejoin: round; stroke-miterlimit: 4; fill: rgb(255,255,255); fill-rule: nonzero; opacity: 1;" vector-effect="non-scaling-stroke"  transform=" translate(-12, -8)" d="M 16 8 C 16 10.2091 14.2091 12 12 12 C 9.79086 12 8 10.2091 8 8 C 8 5.79086 9.79086 4 12 4 C 14.2091 4 16 5.79086 16 8 Z" stroke-linecap="round" />
</g>
<g transform="matrix(33.33 0 0 33.33 539.48 706.16)"  >
<path style="stroke: rgb(70,68,85); stroke-width: 0; stroke-dasharray: none; stroke-linecap: round; stroke-dashoffset: 0; stroke-linejoin: round; stroke-miterlimit: 4; fill: rgb(255,255,255); fill-rule: nonzero; opacity: 1;" vector-effect="non-scaling-stroke"  transform=" translate(-12, -17)" d="M 14.6824 14 L 9.31765 14 C 8.83513 14 8.59387 14 8.37806 14.0461 C 7.63116 14.2056 6.9853 14.7661 6.62346 15.569 C 6.51891 15.8009 6.44262 16.0765 6.29003 16.6278 C 6.10668 17.2901 6.01501 17.6213 6.00261 17.8884 C 5.95888 18.8308 6.46818 19.6817 7.22441 19.9297 C 7.43875 20 7.72864 20 8.30844 20 L 15.6916 20 C 16.2714 20 16.5613 20 16.7756 19.9297 C 17.5318 19.6817 18.0411 18.8308 17.9974 17.8884 C 17.985 17.6213 17.8933 17.2901 17.71 16.6278 C 17.5574 16.0765 17.4811 15.8009 17.3765 15.569 C 17.0147 14.7661 16.3688 14.2056 15.6219 14.0461 C 15.4061 14 15.1649 14 14.6824 14 Z" stroke-linecap="round" />
</g>
</svg>